<svg xmlns="http://www.w3.org/2000/svg" fill="none" viewBox="0 0 48 48"><path fill="#fff" d="M30.58 10.84c.66 0 1.2.54 1.2 1.2v1.2c0 .66-.54 1.2-1.2 1.2H17.42c-.66 0-1.2-.54-1.2-1.2v-1.2c0-.66.54-1.2 1.2-1.2h13.16Z"/><path fill="#fff" fill-rule="evenodd" d="M12.1 16.84c0-2.2 1.8-4 4-4H17.42v2.4H16.1c-.88 0-1.6.72-1.6 1.6v14.32c0 .88.72 1.6 1.6 1.6h15.8c.88 0 1.6-.72 1.6-1.6V16.84c0-.88-.72-1.6-1.6-1.6H30.58v-2.4H31.9c2.2 0 4 1.8 4 4v14.32c0 2.2-1.8 4-4 4H16.1c-2.2 0-4-1.8-4-4V16.84ZM20.42 21.04c0-.66.54-1.2 1.2-1.2h4.76c.66 0 1.2.54 1.2 1.2v4.76c0 .66-.54 1.2-1.2 1.2h-4.76c-.66 0-1.2-.54-1.2-1.2v-4.76Z" clip-rule="evenodd"/></svg>
